<?xml version="1.0" encoding="utf-8"?>
<!-- Generator: Adobe Illustrator 25.4.1, SVG Export Plug-In . SVG Version: 6.00 Build 0)  -->
<svg version="1.1" id="Layer_1" xmlns="http://www.w3.org/2000/svg" xmlns:xlink="http://www.w3.org/1999/xlink" x="0px" y="0px"
	 viewBox="0 0 1500 1500" style="enable-background:new 0 0 1500 1500;" xml:space="preserve">
<style type="text/css">
	.st0{fill:#FFF8F1;stroke:#231F20;stroke-width:31.2529;stroke-linecap:round;stroke-miterlimit:10;}
	.st1{fill:#1474FB;}
	.st2{fill:#F0EAD2;}
</style>
<circle class="st0" cx="741.7" cy="750" r="533"/>
<g>
	<path class="st1" d="M463.4,454.3c9.9-18.3,21.8-36.3,42.8-48.2c62.9-35.3,152.5,16.2,193.9,49.1c39.2,31.1,50,80.8,35,128.3
		c-12.2,26.8-30.6,44.2-54.5,57.1c-53,26.4-144,31.7-135.4,107.1c3.6,75.9,53.6,156.7,5.8,228.4c-7.6,0.9-20.5,1.2-33.6-4.8
		c-20.9-9.5-31.7-30-38.6-48.1C367.1,632.5,463.4,454.3,463.4,454.3z"/>
	<g>
		<path d="M471.5,459c3.9-7.1,8-14.1,12.7-20.7c0.5-0.7,1-1.4,1.5-2.1c0.9-1.2-0.8,1,0.1-0.2c0.3-0.3,0.5-0.7,0.8-1
			c1.4-1.7,2.8-3.3,4.3-5c2.8-3.1,5.9-5.9,9.1-8.6c0.3-0.2,2.5-2,1.3-1.1c0.9-0.6,1.8-1.3,2.6-1.9c1.8-1.3,3.7-2.5,5.6-3.6
			c1.7-1,3.4-1.9,5.1-2.8c0.8-0.4,1.6-0.8,2.5-1.2c0.5-0.2,3.3-1.3,1.3-0.6c6.8-2.6,13.7-4.6,20.9-5.8c0.5-0.1,1-0.1,1.5-0.2
			c-0.1,0-1.7,0.2-0.6,0.1c0.9-0.1,1.8-0.2,2.7-0.3c1.8-0.2,3.6-0.3,5.4-0.4c3.8-0.2,7.6-0.2,11.4,0c3.7,0.2,7.4,0.5,11.1,0.9
			c0.4,0,0.8,0.1,1.2,0.2c-1.9-0.2-0.5-0.1-0.1,0c0.8,0.1,1.6,0.2,2.4,0.4c2,0.3,4,0.7,6,1.1c7.7,1.5,15.2,3.6,22.6,6
			c3.7,1.2,7.3,2.5,10.9,3.9c1.8,0.7,3.6,1.4,5.4,2.1c0.8,0.3,1.5,0.6,2.3,0.9c-1.7-0.7,1.1,0.5,1.6,0.7c13.8,6,27.1,13.1,39.9,21
			c5.8,3.6,11.6,7.4,17.2,11.3c2.5,1.8,5,3.6,7.5,5.4c1.2,0.9,2.3,1.8,3.5,2.6c1.4,1.1-1.3-1.1,0,0c0.6,0.5,1.2,1,1.9,1.5
			c6.5,5.2,12.4,11,17.6,17.5c0.3,0.3,0.5,0.7,0.8,1c-0.2-0.3-1-1.3,0.1,0.1c0.5,0.7,1,1.4,1.5,2c1.2,1.7,2.4,3.5,3.5,5.2
			c2,3.3,3.9,6.7,5.6,10.2c0.4,0.9,0.8,1.7,1.2,2.6c0.2,0.5,0.4,1,0.7,1.5c-0.1-0.1-0.5-1.3-0.2-0.3c0.7,1.9,1.5,3.8,2.2,5.8
			c1.2,3.6,2.3,7.3,3.2,11.1c0.4,1.7,0.8,3.5,1.1,5.3c0.2,1,0.3,1.9,0.5,2.9c0.1,0.5,0.2,1.1,0.2,1.6c-0.1-0.9-0.1-0.9,0,0
			c0.4,3.9,0.7,7.8,0.8,11.7c0.1,4.1,0,8.2-0.3,12.3c-0.1,1.9-0.3,3.7-0.5,5.6c-0.1,0.6-0.1,1.1-0.2,1.7c0-0.2,0.2-1.5,0-0.4
			c-0.2,1.1-0.4,2.3-0.5,3.4c-0.7,4-1.6,8-2.6,12c-0.3,1-0.5,2-0.8,3c-0.2,0.5-0.8,2.8-0.6,2.3c0.3-0.9-0.2,0.5-0.2,0.6
			c-0.3,0.6-0.5,1.1-0.8,1.7c-0.5,1-0.9,1.9-1.4,2.8c-2,3.8-4.1,7.5-6.5,11c-1,1.5-2.1,3.1-3.2,4.5c-0.3,0.4-1.9,2.4-0.8,1.1
			c-0.7,0.9-1.4,1.7-2.1,2.6c-4.9,5.9-10.5,11.2-16.5,16.1c-1.4,1.1-0.3,0.3,0,0.1c-0.3,0.3-0.7,0.5-1,0.7c-0.8,0.6-1.6,1.1-2.3,1.7
			c-1.7,1.2-3.4,2.4-5.2,3.5c-3.3,2.1-6.7,4.2-10.2,6c-2.4,1.3-5,2.4-7.5,3.5c-0.6,0.3-1.3,0.6-1.9,0.8c-1.5,0.7,1.9-0.8-0.2,0.1
			c-1.4,0.6-2.8,1.2-4.2,1.7c-11,4.4-22.3,8.1-33.4,11.9c-23,7.9-46.7,16.1-66,31.2c-8.6,6.8-16.2,15.4-20.9,25.4
			c-5.5,11.7-7.5,24.6-6.5,37.5c1.4,17.7,3.7,35.1,7.4,52.5c3.7,17.5,8.3,34.9,12.1,52.4c1.9,8.6,3.6,17.2,4.9,25.9
			c0.2,1.1,0.3,2.1,0.5,3.2c0,0.1,0.2,1.6,0.1,0.6c-0.1-1.1,0.1,0.8,0.1,1.1c0.3,2.3,0.5,4.6,0.8,6.9c0.4,4.3,0.7,8.5,0.8,12.8
			c0.1,4.2,0.1,8.5-0.1,12.7c-0.1,2.1-0.2,4.2-0.4,6.3c-0.1,0.9-0.2,1.8-0.3,2.7c0,0.4-0.5,3.7-0.2,2c-1.3,8.6-3.4,17.1-6.4,25.3
			c-0.4,1-0.8,2.1-1.2,3.1c0,0-0.6,1.4-0.3,0.6c0.3-0.8-0.3,0.6-0.3,0.6c-0.9,2.1-1.9,4.1-2.9,6.1c-2.1,4.2-4.5,8.2-7.1,12.1
			c2.7-1.5,5.4-3.1,8.1-4.6c-13.5,1.5-25-0.1-36.4-7.6c-0.5-0.3-0.9-0.6-1.4-1c-0.2-0.1-2.4-1.8-0.8-0.5c-1.3-1-2.6-2.1-3.8-3.2
			c-2.2-2.1-4.2-4.3-6.2-6.6c-0.2-0.2-1.8-2.3-0.5-0.7c-0.5-0.7-1-1.3-1.4-2c-0.8-1.1-1.5-2.2-2.3-3.4c-1.7-2.7-3.3-5.5-4.8-8.4
			c-1.3-2.6-2.5-5.2-3.7-7.8c-1.1-2.4,0.7,1.8-0.3-0.6c-0.2-0.5-0.4-0.9-0.6-1.4c-0.8-2-1.6-4-2.3-6c-2.9-7.7-5.7-15.3-8.4-23.1
			c-5.4-15.4-10.4-31-14.9-46.6c-8-27.9-14.6-56.1-19.5-84.7c-1.2-6.7-2.2-13.5-3.2-20.2c-0.2-1.4-0.4-2.9-0.6-4.3
			c-0.4-2.9,0.2,1.9-0.1-0.9c-0.1-0.9-0.2-1.7-0.3-2.6c-0.4-3.4-0.8-6.8-1.2-10.1c-1.4-12.2-2.4-24.4-3.1-36.6
			c-1.3-22.2-1.4-44.4-0.3-66.6c0.5-9.7,1.2-19.4,2.2-29.1c0.5-4.6,1-9.3,1.6-13.9c0.1-1,0.3-2,0.4-2.9c0.3-2.1-0.3,2.3,0,0.2
			c0.1-0.4,0.1-0.8,0.2-1.2c0.3-2.3,0.6-4.5,1-6.8c4.1-26.9,10.2-53.5,19-79.2c1.5-4.2,3-8.4,4.6-12.6c0.7-1.7,1.3-3.4,2-5.1
			c0.3-0.7,0.6-1.4,0.9-2.1c-1.6,3.9-0.3,0.8,0.1-0.2c1.4-3.2,2.9-6.4,4.5-9.6C471.4,459.3,471.4,459.2,471.5,459
			c2.3-4.3,1.2-10.4-3.4-12.8c-4.4-2.3-10.3-1.2-12.8,3.4c-1.5,2.7-2.8,5.6-4,8.4c-3.9,8.7-7.3,17.7-10.4,26.7
			c-4.5,13.2-8.3,26.6-11.4,40.2c-4.4,18.8-7.5,37.8-9.9,56.9c-2.8,22.8-4.1,45.8-4.1,68.8c0,27.4,1.7,54.8,5.1,82
			c4,32.3,10.1,64.3,18.1,95.9c4.4,17.3,9.4,34.5,14.9,51.5c5.6,17.3,11.5,34.6,18.5,51.4c5.8,13.8,13.2,27.3,24.6,37.3
			c13.4,11.9,30.7,17.8,48.6,17.2c1.4,0,2.9-0.1,4.3-0.3c4.4-0.4,7.3-1.4,10-5.2c2.4-3.6,4.6-7.4,6.6-11.2c4-7.7,7.3-15.8,9.7-24.2
			c4.5-15.7,5.9-32.2,5.1-48.4c-1.6-33.2-11-65.4-18.2-97.7c-1.8-8-3.5-16-4.8-24c-0.3-1.8-0.6-3.7-0.9-5.5
			c-0.1-0.9-0.3-1.8-0.4-2.8c-0.1-0.5-0.1-0.9-0.2-1.4c0.2,1.7,0-0.4-0.1-0.7c-0.5-3.9-0.9-7.9-1.2-11.9c-0.5-6.3-1.1-12.7-0.7-19
			c0.1-1.3,0.2-2.5,0.3-3.8c0-0.2,0.2-0.7,0.1-0.9c0,0-0.3,2-0.1,1c0.2-0.8,0.3-1.6,0.4-2.4c0.5-2.5,1.1-4.9,1.9-7.3
			c0.4-1.1,0.8-2.1,1.2-3.2c0.2-0.6-0.9,1.9-0.1,0.2c0.3-0.7,0.6-1.3,0.9-2c1.1-2.1,2.2-4.2,3.6-6.2c0.6-0.9,1.3-1.8,1.9-2.7
			c0.3-0.5-1.3,1.6-0.1,0.2c0.5-0.6,0.9-1.1,1.4-1.7c1.6-1.8,3.2-3.5,4.9-5.2c1.8-1.7,3.6-3.2,5.5-4.7c0.4-0.4-1.6,1.2-0.1,0.1
			c0.5-0.3,0.9-0.7,1.4-1c1.1-0.8,2.2-1.5,3.3-2.3c4.3-2.8,8.8-5.4,13.4-7.7c2.4-1.2,4.8-2.3,7.2-3.4c1.1-0.5,2.3-1,3.4-1.5
			c2-0.9-1.2,0.5,0.4-0.2c0.7-0.3,1.4-0.6,2-0.8c5.1-2.1,10.3-4,15.6-5.9c10.5-3.7,21.1-7.2,31.6-10.9c10.4-3.7,20.9-7.6,30.8-12.6
			c13.1-6.7,25.5-16,35.5-26.7c10.6-11.4,20.7-25.7,24.9-40.8c4.1-14.8,6.1-30.6,5.2-46c-1.8-30.8-14.8-60.2-37.6-81.3
			c-9.3-8.6-19.9-16-30.4-22.9c-11.2-7.4-22.7-14.2-34.7-20.3c-26.3-13.3-54.6-23.5-84.2-25.6c-30.2-2.2-60.5,6.5-82.5,27.9
			c-10.8,10.5-19,23.3-26.1,36.5c-2.3,4.3-1.2,10.4,3.4,12.8C463,464.7,469,463.6,471.5,459z"/>
	</g>
</g>
<g>
	<path class="st2" d="M600.3,598.6c-13.7-11.4-30.8-19.3-45-30.3s-25.9-26.5-23.5-43.2c2.3-16.7,24.3-31.6,41.3-24.3
		c9.4,4.1,14.3,13,18.6,21.4c1.7-10,5.1-20.3,13.2-27.7s21.9-10.8,31.5-5.5c9.7,5.3,11.8,16.7,13.1,26.7c1,7.6,1.9,15.5-0.4,23
		c-7.3,24.3-45,37.6-45.9,62.6"/>
	<g>
		<path d="M607,592c-7.5-6.2-15.7-11.5-24-16.6c-7.8-4.8-15.6-9.5-22.8-15.1c0.6,0.5,1.3,1,1.9,1.5c-5.3-4.1-10.1-8.7-14.2-13.9
			c0.5,0.6,1,1.3,1.5,1.9c-2.7-3.5-5-7.3-6.8-11.3c0.3,0.7,0.6,1.5,0.9,2.2c-1.3-3-2.2-6.1-2.6-9.3c0.1,0.8,0.2,1.7,0.3,2.5
			c-0.4-2.9-0.4-5.7,0-8.6c-0.1,0.8-0.2,1.7-0.3,2.5c0.3-2,0.9-4,1.6-5.9c-0.3,0.7-0.6,1.5-0.9,2.2c1-2.4,2.3-4.6,3.9-6.6
			c-0.5,0.6-1,1.3-1.5,1.9c1.9-2.5,4.1-4.6,6.6-6.5c-0.6,0.5-1.3,1-1.9,1.5c2.5-1.9,5.2-3.5,8.1-4.7c-0.7,0.3-1.5,0.6-2.2,0.9
			c2.6-1.1,5.2-1.8,8-2.2c-0.8,0.1-1.7,0.2-2.5,0.3c2.3-0.3,4.5-0.3,6.8,0c-0.8-0.1-1.7-0.2-2.5-0.3c2.1,0.3,4.1,0.8,6,1.6
			c-0.7-0.3-1.5-0.6-2.2-0.9c2.1,0.9,4,2,5.9,3.4c-0.6-0.5-1.3-1-1.9-1.5c2.1,1.7,4,3.6,5.7,5.8c-0.5-0.6-1-1.3-1.5-1.9
			c2.9,3.8,5.2,8,7.4,12.3c1.7,3.3,5.8,4.9,9.3,4.5c1.7-0.2,3.1-0.8,4.4-1.8c1.5-1.1,3-3,3.4-4.9c0.8-4.9,2-9.7,4-14.3
			c-0.3,0.7-0.6,1.5-0.9,2.2c1.4-3.2,3-6.2,5.1-8.9c-0.5,0.6-1,1.3-1.5,1.9c1.7-2.2,3.6-4.2,5.8-5.9c-0.6,0.5-1.3,1-1.9,1.5
			c2.2-1.7,4.6-3.1,7.2-4.2c-0.7,0.3-1.5,0.6-2.2,0.9c2.6-1.1,5.3-1.9,8.2-2.2c-0.8,0.1-1.7,0.2-2.5,0.3c2.4-0.3,4.8-0.3,7.2,0
			c-0.8-0.1-1.7-0.2-2.5-0.3c1.9,0.3,3.7,0.7,5.4,1.4c-0.7-0.3-1.5-0.6-2.2-0.9c1.6,0.7,3.2,1.6,4.6,2.7c-0.6-0.5-1.3-1-1.9-1.5
			c1.3,1.1,2.5,2.3,3.6,3.6c-0.5-0.6-1-1.3-1.5-1.9c1.3,1.7,2.3,3.6,3.2,5.5c-0.3-0.7-0.6-1.5-0.9-2.2c1.9,4.5,2.8,9.3,3.4,14.1
			c-0.1-0.8-0.2-1.7-0.3-2.5c0.9,6.5,1.7,13.1,0.9,19.6c0.1-0.8,0.2-1.7,0.3-2.5c-0.4,2.8-1.1,5.6-2.2,8.3c0.3-0.7,0.6-1.5,0.9-2.2
			c-1.4,3.3-3.3,6.4-5.5,9.3c0.5-0.6,1-1.3,1.5-1.9c-5.5,7.1-12.5,13-19.1,19c-6.8,6.2-13.7,12.8-18.1,20.9
			c-2.8,5.3-4.5,10.9-4.8,16.9c-0.2,4.9,4.5,9.6,9.4,9.4c5.3-0.2,9.2-4.1,9.4-9.4c0-0.8,0.1-1.6,0.2-2.4c-0.1,0.8-0.2,1.7-0.3,2.5
			c0.3-2.4,1-4.7,1.9-6.9c-0.3,0.7-0.6,1.5-0.9,2.2c1.3-3.1,3.2-6,5.2-8.7c-0.5,0.6-1,1.3-1.5,1.9c6.4-8.2,14.7-14.7,22.3-21.8
			c8.3-7.9,16.5-17.2,19.1-28.7c2-8.4,1.1-16.9,0-25.3c-1-7.3-2.3-14.5-5.8-21.1c-3.8-7-10.3-12.4-18-14.6
			c-7.3-2.1-15.6-1.5-22.6,1.2c-3.5,1.4-7,2.9-10.1,5.2c-3.8,2.9-6.9,6-9.8,9.9c-4.4,5.9-7.2,13.1-8.8,20.2c-0.4,1.6-0.7,3.3-1,5
			c5.7-0.7,11.4-1.5,17.1-2.2c-3.1-6.1-6.5-12-11.2-17c-4.9-5.1-11.6-9.2-18.6-10.3c-6.8-1.1-13.7-0.6-20.1,2
			c-6.4,2.6-12.3,6.2-17,11.3c-4.5,4.8-8.1,10.7-9.7,17.1c-1.7,7.1-1.2,14.9,1,21.9c4.7,14.6,15.5,25.8,27.5,34.8
			c13.1,9.8,27.9,17.1,40.8,27c-0.6-0.5-1.3-1-1.9-1.5c1,0.8,2.1,1.6,3.1,2.4c2,1.6,4,2.7,6.6,2.7c2.3,0,5-1,6.6-2.7
			c1.6-1.8,2.9-4.1,2.7-6.6C609.6,596.3,608.8,593.6,607,592L607,592z"/>
	</g>
</g>
<g>
	<path class="st1" d="M846,1096.9c-16.4-19.1-32.8-38.2-49.2-57.3c-18.7-21.8-37.5-43.6-53.5-67.4c-41.7-61.7-64.3-136-64.1-210.4
		c0.1-26.3,7.3-58.2,32.4-65.8c19.7-6,41,7.6,51.5,25.3s13.5,38.8,18.2,58.9c5.2,22.1,12.9,43.7,22.9,64.1
		c4.6,9.5,10.1,19.1,18.9,24.9c8.8,5.8,21.8,6.5,29.1-1.1c9.9-10.4,3.9-27.3-2-40.4c-8.4-18.7-15.6-39.4-11.2-59.4
		c4.5-20,25.1-37.6,44.7-31.7c16.3,4.9,25,22.9,28,39.7s2.6,34.5,9.6,50.1s25.8,27.9,41.1,20.3c14.4-7.1,17-26.9,13.7-42.7
		c-5.7-27.5-22.6-51.5-30.4-78.5s-2-62.3,23.9-73.1c18.3-7.6,40.2,0.5,53.9,14.7s21,33.4,26.9,52.3c26.2,83.7,33.9,173.1,22.5,260.1
		c-3.6,27.2-16.8,61-44.3,60.5c-21.5-0.4-35.2-22.3-46.2-40.8c-13.3-22.2-30-44.2-54.1-53.6s-56.8-0.6-65.2,23.9
		c-7.3,21.2,5.3,43.5,13.1,64.5c7.8,21.1,7.3,50.9-13.7,59c-20.5,7.9-40.4-12.2-53.3-30"/>
	<g>
		<path d="M852.6,1090.2c-14.4-16.7-28.8-33.5-43.1-50.2c-13.7-15.9-27.4-31.7-40.4-48.2c-0.7-0.9-1.4-1.8-2.1-2.6
			c1.1,1.4-0.1-0.1-0.3-0.4c-0.4-0.6-0.8-1.1-1.3-1.7c-1.5-2-3-4-4.5-6c-3.1-4.3-6.2-8.6-9.2-13c-5.4-7.9-10.5-16.1-15.2-24.4
			c-4.7-8.3-9.1-16.8-13.2-25.4c-2.1-4.4-4.1-8.9-6-13.4c0.8,1.8-0.3-0.7-0.6-1.3c-0.5-1.2-1-2.4-1.5-3.6c-0.9-2.2-1.7-4.3-2.5-6.5
			c-6.8-18-12.3-36.5-16.3-55.3c-1-4.7-1.9-9.4-2.7-14.1c-0.4-2.3-0.8-4.6-1.1-6.9c-0.2-1.1-0.4-2.3-0.5-3.4
			c-0.1-0.6-0.2-1.3-0.3-1.9c-0.1-0.5-0.4-2.9-0.1-0.6c-1.4-9.4-2.1-19-2.7-28.5c-0.5-8.9-0.8-17.8-0.4-26.7
			c0.2-3.7,0.5-7.3,0.9-10.9c0.2-1.4-0.4,2.5-0.1,0.4c0.1-0.4,0.1-0.8,0.2-1.2c0.1-0.9,0.3-1.8,0.4-2.7c0.3-1.9,0.7-3.7,1.2-5.5
			c0.9-3.6,1.9-7.2,3.3-10.6c0.1-0.4,0.3-0.7,0.4-1.1c0.6-1.5-0.2,0.5-0.3,0.7c0.5-0.6,0.8-1.8,1.2-2.6c0.7-1.5,1.5-3,2.4-4.4
			c0.8-1.4,2-2.7,2.8-4.1c-1.1,2-0.8,1-0.3,0.4c0.3-0.3,0.6-0.7,0.9-1c0.6-0.7,1.2-1.3,1.8-1.9c0.5-0.5,1-1,1.6-1.5
			c0.3-0.3,0.7-0.6,1-0.9c0.7-0.7,1.3-0.5-0.4,0.3c1.5-0.6,2.9-2,4.3-2.7c0.6-0.3,1.7-0.6,2.2-1.1c-1.1,0.9-1.6,0.6-0.7,0.3
			c0.4-0.1,0.7-0.3,1-0.4c1.9-0.7,4.1-0.8,6-1.5c-1.6,0.6-1.4,0.1-0.6,0.1c0.5,0,1.1-0.1,1.6-0.1c1,0,1.9-0.1,2.9,0
			c1,0,1.9,0.1,2.8,0.2c1.3,0.1-1.9-0.3-0.6-0.1c0.6,0.1,1.3,0.2,1.9,0.4c1.9,0.4,3.7,0.9,5.6,1.6c0.4,0.1,1.2,0.3,1.5,0.6
			c-0.1-0.1-2-0.9-0.4-0.2c1,0.5,2,0.9,2.9,1.4c1.8,0.9,3.5,2,5.1,3.1c0.4,0.3,0.7,0.5,1.1,0.8c0.1,0.1,1.8,1.5,0.7,0.5
			c-1.2-1,0.5,0.4,0.6,0.5c0.5,0.4,1,0.9,1.5,1.3c1.4,1.3,2.8,2.6,4.1,4c0.7,0.7,1.3,1.5,2,2.3c0.2,0.3,0.7,0.7,0.8,1
			c-1-2-0.2-0.3,0.2,0.2c2.7,3.7,4.9,7.8,6.9,11.9c0.4,0.9,0.9,1.9,1.2,2.8c-0.8-1.9-0.1-0.2,0.1,0.2c0.2,0.6,0.5,1.2,0.7,1.8
			c0.9,2.3,1.6,4.6,2.4,6.9c1.4,4.6,2.6,9.2,3.7,13.8c2.2,9.4,4,19,6.4,28.4c2.5,9.9,5.5,19.8,9,29.4c3.7,10.3,8,20.4,12.7,30.2
			c4.1,8.6,8.7,17.1,15.5,23.9c7.1,7.2,16.4,11.7,26.6,12c10.2,0.3,19.9-4.5,25.3-13.1c5.2-8.2,4.9-18.5,2.8-27.7
			c-1-4.1-2.4-8-3.9-11.9c-1-2.4-2-4.7-3-7.1c-0.5-1.1-1-2.2-1.5-3.3c-0.2-0.5-0.4-1-0.7-1.5c-1.1-2.5,0.7,1.7-0.3-0.8
			c-2-4.8-3.8-9.7-5.3-14.7c-1.4-4.6-2.8-9.5-3.2-14.2c0.2,2,0,0.2,0-0.3c-0.1-0.7-0.1-1.3-0.2-2c-0.1-1.1-0.1-2.1-0.2-3.2
			c-0.1-2.7,0-5.3,0.2-8c0-0.5,0.1-1.1,0.2-1.6c-0.5,1.9-0.1,0.5,0,0.1c0.2-1.3,0.5-2.5,0.8-3.8c0.5-1.9,1.1-3.7,1.7-5.5
			c0.7-2-0.7,1.4-0.1,0.2c0.2-0.5,0.5-1,0.7-1.5c0.4-0.8,0.8-1.5,1.2-2.3c0.5-0.9,1.1-1.9,1.7-2.7c0.2-0.4,0.5-0.7,0.7-1.1
			c0.2-0.3,0.4-0.5,0.6-0.8c0.4-0.6,0.3-0.3-0.5,0.6c0.7-0.5,1.3-1.6,1.9-2.2c0.6-0.7,1.3-1.4,2-2.1c0.6-0.6,1.2-1.2,1.9-1.7
			c0.4-0.3,0.8-0.7,1.2-1c0.5-0.4,0.3-0.3-0.6,0.5c0.3-0.2,0.5-0.4,0.8-0.6c1.5-1.1,3.1-2.1,4.8-2.9c0.5-0.2,0.9-0.4,1.4-0.7
			c1.3-0.6-0.5,0.3-0.5,0.2c0-0.2,2.5-0.9,2.9-1c0.9-0.3,1.8-0.5,2.6-0.7c0.3-0.1,1.3-0.1,1.5-0.3c-0.1,0.1-2.4,0.2-0.7,0.1
			c0.9-0.1,1.8-0.1,2.7-0.1c0.5,0,1,0,1.5,0.1c0.4,0,2.1,0.4,0.6,0c-1.6-0.4,0.4,0.1,0.6,0.1c0.4,0.1,0.8,0.2,1.2,0.3
			c0.9,0.2,1.8,0.5,2.7,0.8c1.8,0.6-0.3,0.1-0.3-0.2c0,0,1.2,0.5,1.1,0.5c0.9,0.4,1.8,0.9,2.6,1.4c0.2,0.1,2.3,1.7,2.4,1.7
			c-0.1,0.1-1.8-1.5-0.5-0.4c0.3,0.3,0.6,0.5,0.9,0.8c1.5,1.3,2.8,2.8,4.1,4.4c0.5,0.6,0.4,1.1-0.3-0.5c0.2,0.3,0.5,0.7,0.7,1
			c0.6,0.8,1.1,1.7,1.7,2.6c1,1.6,1.9,3.3,2.7,4.9c0.2,0.5,0.4,1,0.7,1.4c0,0.1,0.1,0.2,0.1,0.3c0.4,0.9,0.3,0.8-0.2-0.5
			c0.5,0.4,0.7,1.7,0.9,2.4c0.7,2,1.4,4,1.9,6c1.1,4.1,1.8,8.3,2.4,12.6c0.2,1.6-0.3-2.3,0,0.3c0.1,0.5,0.1,1,0.2,1.6
			c0.1,1.2,0.3,2.4,0.4,3.5c0.3,2.5,0.6,5,0.9,7.5c1.2,10.2,2.7,20.4,6.6,29.9c3.8,9.2,9.6,16.8,17.6,22.8c6.9,5.2,16,8.7,24.7,8.1
			c9.5-0.6,18-5.1,23.8-12.6c5.5-7.1,7.8-15.6,8.6-24.4c1.7-18.5-5.7-36.8-13.1-53.3c-3.9-8.8-8.1-17.3-11.9-26.1
			c-0.2-0.5-0.4-0.9-0.6-1.4c0.8,1.8,0.1,0.2-0.1-0.3c-0.4-1.1-0.9-2.1-1.3-3.2c-0.9-2.4-1.8-4.8-2.7-7.2c-1.3-3.8-2.5-7.7-3.4-11.6
			c-0.4-1.7-0.7-3.4-1-5.2c0-0.2-0.4-2.2-0.1-0.5c0.3,1.7,0-0.2,0-0.5c-0.1-1-0.2-2-0.3-2.9c-0.3-3.6-0.3-7.3-0.1-10.9
			c0.1-1.7,0.3-3.3,0.4-5c0.2-2-0.3,1.8-0.1,0.5c0.1-0.5,0.1-1,0.2-1.4c0.2-1,0.3-1.9,0.5-2.8c0.7-3.4,1.8-6.8,3-10.1
			c0.3-0.8,1-1.5-0.2,0.4c0.2-0.3,0.3-0.7,0.5-1c0.3-0.8,0.7-1.5,1.1-2.2c0.8-1.5,1.7-3,2.6-4.5c0.4-0.7,1-1.3,1.4-2
			c0.7-1.1-1.5,1.8-0.3,0.4c0.2-0.3,0.5-0.6,0.7-0.8c1.2-1.4,2.4-2.6,3.8-3.8c0.5-0.5,1.2-0.9,1.6-1.4c-1.2,1.4-1.3,0.9-0.6,0.5
			c0.4-0.3,0.7-0.5,1.1-0.8c1.5-1,3-1.8,4.5-2.6c0.4-0.2,0.9-0.4,1.3-0.6c1.1-0.6-2.3,0.8-0.2,0.1c0.8-0.3,1.7-0.6,2.5-0.8
			c0.9-0.3,1.9-0.5,2.9-0.7c0.5-0.1,1.1-0.2,1.6-0.3c1.9-0.4-2,0.1,0.1,0c2-0.1,3.9-0.3,5.9-0.2c0.9,0,1.7,0.1,2.6,0.2
			c0.3,0,2.2,0.5,0.7,0.1c-1.5-0.4,0.7,0.1,1,0.2c1.8,0.4,3.7,0.8,5.5,1.4c1.1,0.3,2.1,0.7,3.2,1.1c0.3,0.1,1,0.5,1.3,0.5
			c-1.1-0.5-1.3-0.6-0.7-0.3c0.3,0.1,0.6,0.3,0.9,0.4c3.8,1.8,7.3,4,10.7,6.4c1.2,0.8-1.7-1.5,0,0c0.3,0.3,0.7,0.6,1,0.9
			c0.8,0.7,1.5,1.3,2.3,2c1.6,1.5,3.2,3.2,4.7,4.8c0.7,0.8,1.4,1.7,2.1,2.5c1,1.1-1.3-1.8,0.1,0.1c0.3,0.4,0.6,0.8,0.9,1.2
			c1.4,2,2.8,4,4.1,6.1c2.3,3.8,4.3,7.8,6.2,11.8c0.5,1.1,1,2.3,1.5,3.4c-0.8-1.9,0.2,0.5,0.5,1.2c0.9,2.3,1.8,4.6,2.6,7
			c1.5,4.2,2.9,8.5,4.2,12.8c6.2,19.9,11.4,40.2,15.5,60.7c2,10.1,3.8,20.3,5.3,30.4c0.4,2.5,0.7,5,1.1,7.4c-0.3-2,0.1,1,0.2,1.6
			c0.2,1.4,0.4,2.8,0.5,4.1c0.6,5.3,1.2,10.5,1.7,15.8c3.9,41.2,3.7,82.7-0.8,123.8c-0.3,2.5-0.6,5-0.9,7.5
			c-0.2,1.2-0.3,2.5-0.5,3.7c-0.1,0.6-0.2,1.1-0.2,1.7c0.3-2.9,0.1-0.9,0-0.3c-0.5,3.6-1.2,7.1-2,10.6c-0.8,3.6-1.8,7.1-3,10.6
			c-0.6,1.7-1.2,3.4-1.8,5c-0.1,0.4-0.3,0.7-0.4,1.1c-0.7,1.9,0.7-1.5,0.1-0.3c-0.5,1-0.9,2-1.3,2.9c-1.5,3.1-3.2,6.1-5.1,8.9
			c-0.5,0.7-1.2,1.5-1.6,2.2c0.1-0.1,1.4-1.8,0.5-0.6c-0.2,0.3-0.5,0.6-0.7,0.8c-1.1,1.4-2.3,2.6-3.6,3.9c-0.5,0.5-1,0.9-1.6,1.4
			c-2,1.7,1.5-1.1-0.5,0.4c-1.3,0.9-2.7,1.8-4.1,2.5c-0.4,0.2-0.8,0.4-1.1,0.6c-0.7,0.3-1.2,0.1,0.8-0.3c-0.6,0.1-1.3,0.5-1.9,0.7
			c-0.8,0.3-1.6,0.5-2.5,0.7c-0.3,0.1-0.7,0.1-1,0.2c-0.9,0.2-2.1-0.1,0.4,0c-1.7,0-3.3,0.3-5,0.2c-0.4,0-0.8,0-1.2-0.1
			c-0.2,0-2.3-0.2-0.6,0c1.5,0.1,0.2,0-0.2-0.1c-0.6-0.1-1.2-0.2-1.7-0.4c-0.9-0.2-1.7-0.5-2.5-0.7c-0.4-0.1-0.7-0.3-1.1-0.4
			c-1.9-0.6,1.5,0.8,0.3,0.2c-1.6-0.9-3.3-1.6-4.9-2.6c-0.8-0.5-1.5-1-2.2-1.5c-1.5-1.1,0.1,0.3,0.2,0.2c0,0-1-0.8-0.9-0.8
			c-1.6-1.3-3.1-2.7-4.5-4.2c-1.2-1.3-2.4-2.6-3.6-4c-0.6-0.7-1.2-1.5-1.8-2.2c-1-1.3,0.1,0.2,0.3,0.4c-0.4-0.5-0.8-1-1.2-1.6
			c-4.8-6.5-8.9-13.5-13.1-20.5c-4.8-7.9-10.1-15.6-15.8-22.9c-11.4-14.4-25.7-26.6-43.1-33.1c-14.1-5.3-31-5.1-45,0.2
			c-15.5,5.9-28.5,17.8-32.3,34.4c-4.7,20.6,4.2,40.2,11.7,58.9c1.5,3.7,3,7.4,4.1,11.3c0.5,1.6,0.9,3.3,1.3,4.9
			c0.4,1.8,0.4,3.9,1,5.6c0-0.1-0.3-2.4-0.1-0.8c0,0.4,0.1,0.8,0.1,1.1c0.1,0.9,0.2,1.9,0.2,2.9c0.1,1.7,0.2,3.4,0.1,5.1
			c0,1.7-0.1,3.4-0.3,5c0,0.5-0.1,0.9-0.2,1.4c-0.1,1.3,0.4-2.5,0.1-0.6c-0.2,0.9-0.3,1.8-0.5,2.7c-0.3,1.5-0.8,3.1-1.3,4.6
			c-0.2,0.6-0.5,1.3-0.7,1.9c0.6-2.3,0.6-1.3,0.2-0.6c-0.2,0.5-0.4,0.9-0.7,1.4c-0.7,1.3-1.6,2.5-2.4,3.8c-0.7,1,1.6-1.8,0.4-0.5
			c-0.2,0.2-0.4,0.5-0.7,0.7c-0.6,0.6-1.1,1.2-1.8,1.7c-0.2,0.2-0.5,0.4-0.8,0.7c-1.3,1.2,1.6-1,0.5-0.4c-0.7,0.4-1.3,0.9-1.9,1.3
			c-0.7,0.4-1.4,0.7-2.1,1.1c-1,0.7,2.3-0.8,0.5-0.2c-0.6,0.2-1.2,0.5-1.9,0.7c-0.8,0.3-1.7,0.5-2.5,0.6c0.1,0-1.2,0.2-1.2,0.2
			c0,0,2.3-0.2,0.3-0.1c-0.9,0.1-1.9,0.1-2.8,0c-0.4,0-0.8-0.1-1.2-0.1c-2-0.1,1.9,0.4,0,0c-1.8-0.4-3.6-0.8-5.4-1.5
			c-0.2-0.1-1-0.3-1.2-0.5c1.4,1.2,1,0.4,0.2,0c-0.9-0.4-1.8-0.9-2.6-1.4c-1.8-1-3.5-2.1-5.1-3.3c-0.3-0.2-0.8-0.5-1.1-0.8
			c1.5,1.5,0.4,0.3,0,0c-0.8-0.7-1.6-1.3-2.4-2c-3.2-2.8-6.2-5.9-9-9.1c-1.3-1.5-2.6-3.1-3.9-4.6c-0.3-0.4-1.4-1.7,0,0
			c-0.3-0.4-0.6-0.7-0.8-1.1c-0.7-0.9-1.4-1.8-2-2.7c-2.9-4-8.3-6.3-12.8-3.4c-3.9,2.5-6.4,8.6-3.4,12.8
			c5.6,7.7,11.6,15.2,18.7,21.5c7.1,6.2,15.3,11.9,24.7,14c9.2,2.1,19.1,0.8,27.2-4.3c7.1-4.5,11.9-11.1,15-18.8
			c5.6-14.1,4.2-31.2-0.4-45.4c-2.9-9-7-17.5-10.3-26.3c-1.7-4.5-3.2-9.1-4.3-13.8c-0.3-1.2-0.6-2.5-0.8-3.7c-0.1-0.5-0.2-1-0.3-1.5
			c-0.5-2.4,0.1,1.4,0-0.1c-0.2-2.4-0.4-4.7-0.3-7.1c0-1.2,0.1-2.5,0.2-3.7c0.1-1.3-0.3-0.3,0,0.3c-0.1-0.2,0.2-1.2,0.3-1.5
			c0.2-1.2,0.6-2.5,0.9-3.7c0.3-0.9,1-2.1,1.1-3c-0.1,1.4-0.7,1.6-0.3,0.7c0.2-0.5,0.5-1,0.7-1.5c0.3-0.6,0.7-1.3,1.1-1.9
			c0.5-0.8,0.9-1.5,1.5-2.3c0.2-0.3,0.5-0.6,0.6-0.9c-0.8,1.7-0.8,1.1-0.1,0.2c1-1.2,2.2-2.4,3.3-3.5c0.6-0.5,1.2-1.1,1.8-1.6
			c0.7-0.6,1.4-0.6-0.4,0.3c0.5-0.2,0.9-0.7,1.3-1c1.3-0.9,2.7-1.8,4.2-2.6c0.7-0.4,1.5-0.8,2.2-1.1c0.4-0.2,0.8-0.4,1.3-0.6
			c1.6-0.8-2,0.7-0.2,0.1c3.3-1.2,6.6-2.2,10-2.9c0.8-0.2,1.7-0.2,2.5-0.4c-2.8,0.8,0.1,0,0.9-0.1c1.8-0.2,3.6-0.2,5.4-0.2
			c1.7,0,3.4,0.1,5.1,0.3c0.4,0,1,0.2,1.4,0.2c-0.1,0-2.4-0.4-0.8-0.1c0.9,0.2,1.9,0.3,2.8,0.5c1.8,0.4,3.5,0.8,5.2,1.3
			c0.8,0.2,1.6,0.5,2.4,0.8c0.4,0.1,0.7,0.3,1.1,0.4c1,0.4,1.8,0.5,0.3,0.1c1.9,0.5,3.9,1.8,5.6,2.7c2,1.1,4,2.3,5.9,3.6
			c1,0.6,1.9,1.3,2.8,2c0.4,0.3,0.7,0.5,1.1,0.8c1.4,1,0-0.1-0.3-0.2c1.9,1.2,3.6,3,5.3,4.5c3.3,3,6.3,6.2,9.2,9.5
			c1.4,1.6,2.7,3.2,4.1,4.9c0.3,0.4,0.6,0.7,0.9,1.1c-1.2-1.7-0.3-0.4,0,0.1c0.8,1,1.6,2.1,2.3,3.1c10.1,14,17.6,29.7,28.9,42.9
			c5.3,6.2,11.7,12.1,19.2,15.5c8.5,3.9,17.6,5.2,26.8,3.2c15.2-3.2,26.3-15.9,32.9-29.3c7.7-15.7,10.6-32.4,12.5-49.6
			c2.4-20.7,3.7-41.6,3.9-62.5c0.4-42.6-3.6-85.3-11.9-127c-4.1-20.8-9.3-41.3-15.6-61.5c-5.9-18.9-12.8-37.6-25.4-53.1
			c-11.8-14.6-29.9-24.9-48.9-25.4c-17.6-0.4-33.5,8.9-42.6,23.7c-8.2,13.4-10.9,30.2-9.6,45.7c1.6,18.9,9.2,36.1,17,53.1
			c2.1,4.5,4.1,8.9,6.2,13.4c0.5,1.1,0.9,2.1,1.4,3.2c0.2,0.5,1.5,3.7,0.7,1.7c1,2.4,1.9,4.8,2.8,7.2c1.7,4.6,3.2,9.2,4.4,13.9
			c0.5,2.1,1,4.1,1.4,6.2c0.1,0.4,0.1,0.8,0.2,1.2c0.3,1.6-0.1-0.5-0.1-0.7c-0.1,1.1,0.3,2.5,0.4,3.6c0.1,1.8,0.2,3.6,0.1,5.4
			c0,0.8-0.1,1.6-0.1,2.4c0,0.5-0.1,1-0.1,1.5c-0.2,2.2,0.2-1,0-0.1c-0.3,1.7-0.6,3.5-1.1,5.2c-0.2,0.8-0.5,1.7-0.8,2.5
			c-0.1,0.4-0.3,0.7-0.4,1.1c-0.6,1.7,1-1.9-0.1,0.1c-0.8,1.5-1.7,2.8-2.5,4.3c-0.6,1.1,1.6-1.8,0.3-0.4c-0.2,0.3-0.5,0.6-0.7,0.8
			c-0.6,0.7-1.3,1.3-2,1.9c-1.4,1.3,1.5-0.8,0.4-0.3c-0.4,0.2-0.8,0.5-1.2,0.8c-0.7,0.4-1.3,0.7-2,1.1c-1.8,1,1.5-0.5,0.3-0.1
			c-0.5,0.2-0.9,0.3-1.4,0.5c-0.7,0.2-2.3,0.2-2.9,0.7c1-0.8,1.9-0.1,0.4-0.1c-0.5,0-1,0-1.5,0c-0.8,0-1.6-0.1-2.3-0.1
			c-2-0.1,1.7,0.4,0.4,0.1c-0.5-0.1-1-0.2-1.5-0.3c-1-0.2-1.9-0.5-2.9-0.8c0.1,0-1.1-0.4-1.1-0.4c0,0,2,0.9,0.3,0.1
			c-0.8-0.4-1.7-0.8-2.5-1.3c-0.8-0.5-1.6-1-2.4-1.5c-0.4-0.3-0.9-0.6-1.3-0.9c-1.5-1.1,1.4,1.2-0.1-0.1c-1.5-1.3-2.9-2.6-4.2-4
			c-0.3-0.3-0.6-0.6-0.9-1c-0.1-0.1-1.5-1.7-0.5-0.5c1,1.1-0.3-0.4-0.4-0.6c-0.4-0.5-0.7-1-1.1-1.6c-1-1.6-1.9-3.3-2.7-5
			c-0.2-0.4-0.7-1.7,0,0.1c-0.2-0.5-0.4-1-0.6-1.5c-0.6-1.5-1-2.9-1.5-4.4c-1.4-4.6-2.3-9.4-3-14.2c-0.1-0.7-0.2-1.3-0.3-2
			c0,0.3,0.2,2,0,0.1c-0.1-1.2-0.3-2.4-0.4-3.5c-0.3-2.5-0.6-5-0.9-7.5c-1.1-9.4-2.3-18.8-5.5-27.8c-3.1-8.5-7.4-16.6-13.8-23.1
			c-6.8-6.8-15.4-10.8-25-11.8c-18.3-1.8-35.8,11.6-43.9,27.2c-9.9,19.1-6.9,41.7,0.1,61.3c1.9,5.4,4.2,10.7,6.5,15.9
			c0.4,1,0.9,2,1.4,3c0.2,0.4,0.3,0.8,0.5,1.2c0.9,2-0.6-1.4,0-0.1c0.8,2,1.6,4,2.3,6c0.7,2,1.3,4.1,1.8,6.2c0.2,1,0.4,1.9,0.6,2.9
			c0,0.1,0.3,1.1,0.2,1.3c-0.2-1.4-0.2-1.6-0.1-0.6c0,0.2,0,0.4,0.1,0.6c0.1,1,0.1,2.1,0.1,3.1c0,0.5-0.4,2.1-0.2,2.4
			c-0.4-0.6,0.4-2.1,0-0.4c-0.1,0.5-0.2,1-0.3,1.4c-0.1,0.4-0.2,0.8-0.4,1.1c-0.6,1.9,1-1.8,0,0c-0.2,0.4-1.2,2.6-1.6,2.6
			c-0.1,0,1.6-1.8,0.3-0.4c-0.3,0.3-0.6,0.6-0.9,0.9c-0.3,0.3-1.2,1.6-0.4,0.5c0.7-1,0,0-0.5,0.3c-0.3,0.2-0.7,0.4-1,0.6
			c-0.3,0.1-0.5,0.3-0.8,0.4c-0.6,0.3-0.4,0.2,0.9-0.4c-0.8,0.1-1.8,0.6-2.6,0.8c-0.2,0.1-1.4,0.1-1.5,0.3c0.1-0.1,2.4-0.2,0.7-0.1
			c-0.9,0-1.8,0.1-2.8,0c-0.2,0-1.6-0.1-1.6-0.1c0-0.1,2.4,0.4,0,0c-0.8-0.2-1.6-0.4-2.5-0.6c-0.6-0.2-1.2-0.4-1.8-0.6
			c-0.8-0.2-0.9-0.8,0.5,0.2c-1.8-1.2-3.9-1.9-5.6-3.3c0.2,0.2,1.5,1.3,0.2,0.1c-0.4-0.3-0.7-0.6-1.1-0.9c-0.9-0.8-1.7-1.6-2.5-2.5
			c-0.6-0.7-1.2-1.4-1.9-2.2c-1.5-1.8,0.7,1.1-0.1-0.1c-0.4-0.6-0.8-1.2-1.2-1.8c-5.4-8-9.4-17-13.2-25.8c0,0.1-1-2.4-0.5-1.2
			c0.5,1.3-0.5-1.3-0.5-1.2c-0.5-1.2-0.9-2.3-1.4-3.5c-1-2.4-1.9-4.9-2.8-7.4c-1.8-4.9-3.5-9.9-5.1-15c-3.1-9.9-5.6-19.9-7.7-30
			c-2.1-9.5-4-19-6.9-28.3c-2.9-9.4-6.7-18.9-12.4-27.1c-5.5-7.9-12.4-14.8-20.7-19.9c-15.4-9.6-35.7-11.4-51.1-0.8
			c-13.4,9.2-20.8,24.3-24.3,39.8c-3.8,16.9-3.6,34.4-2.6,51.6c1.2,20,3.9,40,8.1,59.7c8.3,38.6,22.7,76.1,42.3,110.4
			c21,36.7,48.9,68.5,76.3,100.4c14.1,16.4,28.2,32.8,42.3,49.2c3.2,3.7,10,3.5,13.3,0C856.3,1099.5,856,1094.2,852.6,1090.2
			L852.6,1090.2z"/>
	</g>
</g>
</svg>
